<?xml version="1.0" encoding="utf-8"?>
<svg viewBox="0 0 300 300" xmlns="http://www.w3.org/2000/svg">
  <defs>
    <linearGradient id="_Linear1" x1="0" y1="0" x2="1" y2="0" gradientUnits="userSpaceOnUse" gradientTransform="matrix(291.604004, 0, 0, 291.604004, 1.194111, 157.383895)">
      <stop offset="0" style="stop-color:rgb(252,213,81);stop-opacity:1"/>
      <stop offset="0.07" style="stop-color:rgb(159,117,43);stop-opacity:1"/>
      <stop offset="0.19" style="stop-color:rgb(252,213,81);stop-opacity:1"/>
      <stop offset="0.4" style="stop-color:rgb(252,213,81);stop-opacity:1"/>
      <stop offset="0.56" style="stop-color:rgb(247,244,170);stop-opacity:1"/>
      <stop offset="0.68" style="stop-color:rgb(252,213,81);stop-opacity:1"/>
      <stop offset="0.75" style="stop-color:rgb(159,117,43);stop-opacity:1"/>
      <stop offset="0.88" style="stop-color:rgb(252,213,81);stop-opacity:1"/>
      <stop offset="0.97" style="stop-color:rgb(247,244,170);stop-opacity:1"/>
      <stop offset="1" style="stop-color:rgb(252,213,81);stop-opacity:1"/>
    </linearGradient>
  </defs>
  <path d="M 97.715 33.744 C 81.677 40.45 67.388 50.073 55.141 62.612 C 42.602 74.86 32.979 89.148 26.272 105.187 C 19.274 121.808 15.774000000000001 139.304 15.774000000000001 157.384 C 15.774000000000001 175.463 19.274 192.959 26.272 209.581 C 32.979 225.619 42.602 239.908 55.141 252.155 C 67.388 264.694 81.677 274.317 97.715 281.024 C 114.336 288.022 131.833 291.521 149.912 291.521 C 167.992 291.521 185.779 288.022 202.109 281.024 C 218.147 274.317 232.436 264.694 244.975 252.155 C 257.222 239.908 266.845 225.619 273.552 209.581 C 280.551 192.959 284.05 175.463 284.05 157.384 C 284.05 139.304 280.551 121.808 273.552 105.187 C 266.845 89.148 257.222 74.86 244.975 62.612 C 232.436 50.073 218.147 40.45 202.109 33.744 C 185.779 26.745 167.992 23.246 149.912 23.246 C 131.833 23.246 114.336 26.745 97.715 33.744 Z M 19.274 157.384 C 19.274 85.357 77.886 26.745 149.912 26.745 C 221.938 26.745 280.551 85.357 280.551 157.384 C 280.551 229.41 221.938 288.022 149.912 288.022 C 77.886 288.022 19.274 229.41 19.274 157.384 Z M 97.715 19.747 C 81.677 26.453 67.388 36.076 55.141 48.615 C 42.602 60.863 32.979 75.151 26.272 91.19 C 19.274 107.811 15.774000000000001 125.307 15.774000000000001 143.387 C 15.774000000000001 161.466 19.274 178.962 26.272 195.584 C 32.979 211.622 42.602 225.911 55.141 238.158 C 67.388 250.697 81.677 260.32 97.715 267.027 C 114.336 274.025 131.833 277.524 149.912 277.524 C 167.992 277.524 185.779 274.025 202.109 267.027 C 218.147 260.32 232.436 250.697 244.975 238.158 C 257.222 225.911 266.845 211.622 273.552 195.584 C 280.551 178.962 284.342 161.466 284.342 143.387 C 284.342 125.307 280.551 107.811 273.552 91.19 C 266.845 75.151 257.222 60.863 244.975 48.615 C 232.436 36.076 218.147 26.453 202.109 19.747 C 185.779 12.748 167.992 9.249 149.912 9.249 C 131.833 9.249 114.336 12.748 97.715 19.747 Z M 19.274 143.387 C 19.274 71.36 77.886 12.748 149.912 12.748 C 221.938 12.748 280.551 71.36 280.551 143.387 C 280.551 215.413 221.938 274.025 149.912 274.025 C 77.886 274.025 19.274 215.413 19.274 143.387 Z M 108.213 53.573 L 106.463 54.156 L 106.463 122.391 L 125.417 137.846 L 125.417 251.572 L 174.407 251.572 L 174.407 138.721 L 193.07 122.683 L 193.07 54.156 L 191.903 53.864 C 191.612 53.573 181.989 50.948 166.825 49.782 C 162.451 49.199 156.327 48.907 150.204 48.907 C 137.956 48.907 123.668 50.073 108.213 53.573 Z M 129.5 135.805 L 110.546 120.35 L 110.546 57.363 C 132.708 52.406 153.12 52.406 166.534 53.864 C 177.906 54.739 186.071 56.489 189.279 57.072 L 189.279 120.642 L 170.616 136.68 L 170.616 247.489 L 129.5 247.489 L 129.5 135.805 Z M 129.208 86.524 L 126.875 89.732 L 128.042 90.898 C 128.917 89.148 130.958 86.815 133.582 86.815 C 136.498 86.815 137.956 88.857 137.956 92.064 C 137.956 95.272 135.915 98.771 133.291 101.687 C 131.249 104.02 128.917 106.061 126.584 108.394 L 126.584 109.561 L 142.039 109.561 C 142.33 107.811 142.914 105.478 143.205 104.02 L 142.33 103.437 C 141.164 105.77 140.289 106.061 138.54 106.061 L 130.958 106.061 C 132.416 104.603 135.04 102.27 136.79 100.521 C 140.289 96.73 141.747 94.397 141.747 91.19 C 141.747 86.524 138.831 83.899 134.749 83.899 C 132.416 83.899 130.666 84.774 129.208 86.524 Z M 148.163 92.356 C 148.163 101.687 154.578 110.144 167.7 110.144 C 171.491 110.144 175.865 109.269 177.031 108.686 C 178.198 107.228 179.364 103.145 179.947 100.521 L 178.489 99.938 C 175.865 105.478 172.949 107.811 167.992 107.811 C 159.535 107.811 154.286 101.396 154.286 91.19 C 154.286 82.441 158.66 76.026 167.408 76.026 C 169.158 76.026 171.199 76.318 172.657 76.901 C 175.573 78.359 176.74 80.4 177.906 83.899 L 179.364 83.608 C 179.073 80.983 178.781 77.776 178.489 75.443 C 176.74 75.151 172.949 73.985 168.575 73.985 C 156.327 73.985 148.163 81.567 148.163 92.356 Z" style="fill:url(#_Linear1);fill-rule:nonzero;"/>
</svg>