<svg xmlns="http://www.w3.org/2000/svg" version="1.1" xmlns:xlink="http://www.w3.org/1999/xlink" xmlns:svgjs="http://svgjs.com/svgjs" width="512" height="512"><svg xmlns="http://www.w3.org/2000/svg" width="512" height="512" preserveAspectRatio="xMidYMid meet" version="1.0"><rect id="SvgjsRect1003" width="100%" height="100%" x="0" y="0" fill="none" stroke="none"></rect>

 <g style="" class="currentLayer">
  <title>Layer 1</title>
  <g id="SvgjsG1002" fill="#b75c17" transform="translate(0,512) scale(0.10000000149011612,-0.10000000149011612) " class="" fill-opacity="1" stroke="#000000" stroke-opacity="1" stroke-width="35">
   <path id="SvgjsPath1001" d="m2430,4855.695905685425 c-14,-2 -68,-12 -120,-20 c-178,-31 -329,-85 -439,-159 c-261,-173 -441,-581 -401,-908 c28,-231 91,-399 207,-549 c42,-56 140,-145 183,-168 c11,-6 20,-14 20,-18 c0,-16 -271,-333 -388,-453 c-156,-162 -291,-332 -336,-422 c-82,-167 -69,-268 46,-372 c79,-72 146,-100 238,-100 c107,0 177,36 305,158 l98,92 l-7,-95 c-3,-52 -13,-194 -22,-315 c-8,-121 -24,-308 -35,-415 c-28,-287 -41,-517 -34,-585 c9,-73 35,-145 69,-190 c63,-82 244,-129 405,-106 c110,16 158,43 194,110 c40,73 83,284 107,526 c14,139 17,155 35,155 c16,0 19,-16 35,-175 c35,-352 90,-534 174,-582 c62,-34 190,-49 295,-34 c196,28 281,108 300,282 c9,88 -1,300 -29,569 c-19,197 -45,528 -56,740 l-6,115 l78,-77 c147,-143 236,-187 351,-175 c106,11 239,101 283,193 c31,63 25,165 -13,248 c-55,119 -169,265 -368,471 c-137,143 -369,415 -369,434 c0,4 29,28 65,55 c296,217 426,707 291,1102 c-58,171 -174,349 -288,443 c-162,133 -428,218 -708,226 c-74,2 -146,2 -160,-1 zm-297,-868 c7,-19 -18,-40 -38,-32 c-15,6 -20,28 -8,39 c12,12 41,7 46,-7 zm854,3 c16,-16 5,-39 -17,-39 c-23,0 -34,16 -26,35 c6,18 28,19 43,4 zm-739,-27 c43,-56 -37,-123 -90,-75 c-44,39 -2,111 57,96 c11,-3 26,-12 33,-21 zm858,-8 c37,-55 -25,-117 -80,-80 c-49,31 -24,106 35,106 c20,0 34,-8 45,-26 zm-1791,-1799 c65,-12 82,-28 95,-90 c17,-80 47,-111 121,-126 c66,-13 85,-31 99,-94 c7,-30 5,-38 -13,-50 c-31,-22 -40,-19 -56,16 c-16,36 -60,65 -112,74 c-50,9 -76,35 -94,100 c-20,66 -54,98 -124,115 c-53,12 -55,18 -23,67 c13,21 16,21 41,9 c15,-8 45,-17 66,-21 zm2599,-22 c6,-19 1,-23 -47,-37 c-64,-19 -92,-47 -112,-112 c-17,-60 -47,-90 -96,-99 c-54,-10 -93,-38 -113,-80 c-17,-34 -19,-36 -39,-22 c-17,11 -22,24 -21,55 c1,63 24,89 84,97 c74,10 115,49 130,121 c14,68 34,87 109,102 c33,7 63,17 67,23 c7,12 27,-14 38,-48 zm-1815,-623 c136,-59 197,-61 326,-9 c100,40 162,39 263,-3 c104,-42 189,-44 282,-4 c106,46 131,50 206,40 l69,-9 l5,-58 c3,-32 4,-60 2,-62 c-2,-2 -16,1 -31,6 c-14,6 -58,11 -98,11 c-61,0 -83,-5 -151,-36 c-108,-49 -157,-49 -266,1 c-69,32 -91,38 -151,38 c-60,0 -82,-6 -151,-38 c-109,-50 -158,-50 -266,-1 c-68,31 -90,36 -151,36 c-40,0 -85,-5 -100,-11 c-38,-15 -37,-16 -37,28 c0,64 14,89 52,94 c91,11 131,7 197,-23 zm-250,-910 c64,-54 102,-60 196,-30 l73,23 l73,-36 c95,-46 126,-51 180,-33 c24,8 45,14 47,12 c2,-2 -1,-22 -7,-43 c-9,-32 -19,-43 -56,-61 c-25,-12 -55,-22 -66,-22 c-11,0 -53,18 -93,40 c-83,46 -117,49 -194,20 c-77,-29 -99,-26 -159,23 c-52,41 -53,43 -53,95 c0,28 3,52 6,52 c3,0 27,-18 53,-40 zm1434,-103 c-15,-16 -43,-36 -61,-43 c-29,-13 -39,-12 -105,11 c-41,14 -80,25 -88,25 c-9,0 -51,-18 -95,-41 c-86,-44 -109,-46 -190,-12 c-43,18 -54,34 -54,82 c0,18 4,22 18,16 c77,-32 121,-27 223,27 l60,31 l73,-23 c95,-29 134,-24 195,28 l46,39 l3,-55 c3,-48 0,-58 -25,-85 z" fill="#b75c17" stroke="#000000" stroke-opacity="1" stroke-width="35"></path>
  </g>
  <rect id="SvgjsRect1000" height="47" width="137" y="97" x="200" stroke="none" fill="#b75c17" class="" fill-opacity="1"></rect>
 </g>
</svg><style>@media (prefers-color-scheme: light) { :root { filter: none; } }
</style></svg>